<?xml version="1.0" encoding="utf-8"?>
<!-- Generator: Adobe Illustrator 22.0.1, SVG Export Plug-In . SVG Version: 6.00 Build 0)  -->
<svg version="1.1" id="Layer_1" xmlns="http://www.w3.org/2000/svg" xmlns:xlink="http://www.w3.org/1999/xlink" x="0px" y="0px"
	 viewBox="0 0 5044.7 1000" style="enable-background:new 0 0 5044.7 1000;" xml:space="preserve">
<style type="text/css">
	.st0{fill:#F9B454;}
	.st1{fill:#1D517B;}
	.st2{fill:#1872BA;}
	.st3{fill:#8DCAEF;}
	.st4{fill:#921B1E;}
	.st5{fill:#BE2629;}
	.st6{fill:#174F9D;}
	.st7{fill:#FBDF3E;}
	.st8{fill:#ED4D33;}
	.st9{fill:#202C5C;}
	.st10{fill:#30302F;}
</style>
<g>
	<rect class="st0" width="132.4" height="132.4"/>
	<rect x="289.2" class="st1" width="132.4" height="132.4"/>
	<rect x="578.4" class="st2" width="132.4" height="132.4"/>
	<rect x="723" class="st3" width="132.4" height="132.4"/>
	<rect x="867.6" class="st1" width="132.4" height="132.4"/>
	<rect x="144.6" y="144.6" class="st1" width="132.4" height="132.4"/>
	<rect x="433.8" y="144.6" class="st0" width="132.4" height="132.4"/>
	<rect x="723" y="144.6" class="st4" width="132.4" height="132.4"/>
	<rect x="867.6" y="144.6" class="st2" width="132.4" height="132.4"/>
	<rect x="289.2" y="289.2" class="st5" width="132.4" height="132.4"/>
	<rect x="578.4" y="289.2" class="st6" width="132.4" height="132.4"/>
	<rect x="867.6" y="289.2" class="st7" width="132.4" height="132.4"/>
	<rect y="433.8" class="st3" width="132.4" height="132.4"/>
	<rect x="433.8" y="433.8" class="st8" width="132.4" height="132.4"/>
	<rect x="723" y="433.8" class="st9" width="132.4" height="132.4"/>
	<rect x="867.6" y="433.8" class="st1" width="132.4" height="132.4"/>
	<rect x="289.2" y="578.4" class="st6" width="132.4" height="132.4"/>
	<rect x="578.4" y="578.4" class="st9" width="132.4" height="132.4"/>
	<rect x="867.6" y="578.4" class="st6" width="132.4" height="132.4"/>
	<rect x="144.6" y="723" class="st2" width="132.4" height="132.4"/>
	<rect x="433.8" y="723" class="st7" width="132.4" height="132.4"/>
	<rect x="723" y="723" class="st2" width="132.4" height="132.4"/>
	<rect x="867.6" y="723" class="st0" width="132.4" height="132.4"/>
	<rect y="867.6" class="st7" width="132.4" height="132.4"/>
	<rect x="289.2" y="867.6" class="st3" width="132.4" height="132.4"/>
	<rect x="578.4" y="867.6" class="st3" width="132.4" height="132.4"/>
	<rect x="723" y="867.6" class="st4" width="132.4" height="132.4"/>
	<rect x="867.6" y="867.6" class="st5" width="132.4" height="132.4"/>
</g>
<g>
	<g>
		<path class="st10" d="M1368.8,450.9c-51.1,0-88.4-16.8-119-46.7c-44.2-44.2-44.9-94.1-44.9-178.8s0.6-134.6,44.9-178.8
			c30.5-29.9,67.9-46.7,119-46.7c82.8,0,146.4,47.3,162.6,140.1h-88.4c-8.7-36.2-31.1-62.9-74.2-62.9c-23.7,0-43,8.7-55.4,23
			c-16.2,18.7-21.8,40.5-21.8,125.2c0,84.7,5.6,106.5,21.8,125.2c12.4,14.3,31.8,23,55.4,23c43,0,66-26.8,74.7-62.9h87.9
			C1515.1,403.5,1451,450.9,1368.8,450.9z"/>
		<path class="st10" d="M1839,447.2l-26.1-78.5h-157.6l-26.8,78.5h-90.3L1699.5,3.6h67.9l162,443.5L1839,447.2L1839,447.2z
			 M1735.6,134.4l-56.1,161.3h110.3L1735.6,134.4z"/>
		<path class="st10" d="M2234,447.2L2058.3,175v272.2h-86.6V3.6h77.3l175.7,271.6V3.6h86.6v443.5H2234z"/>
		<path class="st10" d="M2539.2,450.9c-51.1,0-88.4-16.8-119-46.7c-44.2-44.2-44.9-94.1-44.9-178.8s0.6-134.6,44.9-178.8
			c30.5-29.9,67.9-46.7,119-46.7c82.8,0,146.4,47.3,162.6,140.1h-88.4c-8.7-36.2-31.1-62.9-74.2-62.9c-23.7,0-43,8.7-55.4,23
			c-16.2,18.7-21.8,40.5-21.8,125.2c0,84.7,5.6,106.5,21.8,125.2c12.4,14.3,31.8,23,55.4,23c43,0,66-26.8,74.7-62.9h87.8
			C2685.5,403.5,2621.4,450.9,2539.2,450.9z"/>
		<path class="st10" d="M2753.1,447.2V3.6h292.1v77.3h-205.6v104h175v77.3h-175V370h205.6v77.3L2753.1,447.2L2753.1,447.2z"/>
		<path class="st10" d="M3339.7,447.2l-86.6-176.9h-62.3v176.9h-86.6V3.6h173.8c90.3,0,143.9,61.7,143.9,135.8
			c0,62.3-38,100.9-81,116.5l99,191.3L3339.7,447.2L3339.7,447.2z M3272.5,80.9h-81.6V198h81.6c38,0,62.9-24.3,62.9-58.6
			S3310.5,80.9,3272.5,80.9z"/>
	</g>
	<g>
		<path class="st10" d="M1498.9,931.5c-31.8,44.2-73.5,64.8-133.9,64.8h-160.1V552.7H1365c60.5,0,102.1,20.6,133.9,64.8
			c27.4,38,28,83.5,28,157S1526.3,893.5,1498.9,931.5z M1422.3,657.4c-14.3-18.1-35.5-27.4-64.8-27.4h-66v289h66
			c29.3,0,50.4-9.3,64.8-27.4c16.2-19.3,18.1-47.3,18.1-117.1C1440.4,704.7,1438.5,676.7,1422.3,657.4z"/>
		<path class="st10" d="M1840.2,996.3l-26.1-78.5h-157.6l-26.8,78.5h-90.3l161.3-443.5h67.8l162,443.5L1840.2,996.3L1840.2,996.3z
			 M1736.8,683.5l-56.1,161.3H1791L1736.8,683.5z"/>
		<path class="st10" d="M2096.4,630v366.3h-86.6V630h-115.8v-77.3h318.3V630H2096.4z"/>
		<path class="st10" d="M2476.3,996.3l-26.1-78.5h-157.6l-26.8,78.5h-90.4l161.3-443.5h67.9l162,443.5L2476.3,996.3L2476.3,996.3z
			 M2372.9,683.5l-56.1,161.3H2427L2372.9,683.5z"/>
		<path class="st10" d="M2869.3,1000c-67.3,0-118.4-14.3-162-58.6l56.1-56.1c28,28,66,37.4,106.5,37.4c51.7,0,79.1-19.9,79.1-55.4
			c0-15-4.4-27.4-13.7-36.7c-8.7-8.1-17.4-11.9-39.8-15l-53-8.1c-39.3-5.6-66-17.4-86-36.7c-21.2-20.6-31.8-49.9-31.8-87.2
			c0-79.1,58.6-134.6,154.5-134.6c61,0,105.3,15,143.3,51.7l-54.8,54.2c-27.4-26.8-61.7-30.5-91-30.5c-46.1,0-67.9,25.6-67.9,56.1
			c0,11.9,3.1,23,12.4,31.8c8.7,8.1,21.8,14.3,40.5,16.8l53,8.1c40.5,5.6,65.4,16.2,84.7,34.9c23.7,21.8,34.3,53.6,34.3,93.4
			C3033.7,951.4,2962.8,1000,2869.3,1000z"/>
		<path class="st10" d="M3244.2,1000c-51.1,0-88.4-16.8-119-46.7c-44.2-44.2-44.9-94.1-44.9-178.8s0.6-134.6,44.9-178.8
			c30.5-29.9,67.9-46.7,119-46.7c82.8,0,146.4,47.3,162.6,140.1h-88.4c-8.7-36.2-31.1-62.9-74.2-62.9c-23.7,0-43,8.7-55.4,23
			c-16.2,18.7-21.8,40.5-21.8,125.2c0,84.7,5.6,106.5,21.8,125.2c12.4,14.3,31.8,23,55.4,23c43,0,66-26.8,74.7-62.9h87.9
			C3390.6,952.6,3326.5,1000,3244.2,1000z"/>
		<path class="st10" d="M3458.1,996.3V552.7h86.6v443.5H3458.1z"/>
		<path class="st10" d="M3620.1,996.3V552.7h292.1V630h-205.6v104h175v77.3h-175V919h205.6v77.3L3620.1,996.3L3620.1,996.3z"/>
		<path class="st10" d="M4233.5,996.3L4057.9,724v272.2h-86.6V552.7h77.3l175.7,271.6V552.7h86.6v443.5H4233.5z"/>
		<path class="st10" d="M4538.7,1000c-51.1,0-88.4-16.8-119-46.7c-44.2-44.2-44.9-94.1-44.9-178.8s0.6-134.6,44.9-178.8
			c30.5-29.9,67.9-46.7,119-46.7c82.8,0,146.4,47.3,162.6,140.1h-88.4c-8.7-36.2-31.1-62.9-74.2-62.9c-23.7,0-43,8.7-55.4,23
			c-16.2,18.7-21.8,40.5-21.8,125.2c0,84.7,5.6,106.5,21.8,125.2c12.4,14.3,31.8,23,55.4,23c43,0,66-26.8,74.7-62.9h87.9
			C4685.1,952.6,4620.9,1000,4538.7,1000z"/>
		<path class="st10" d="M4752.6,996.3V552.7h292.1V630h-205.6v104h175v77.3h-175V919h205.6v77.3L4752.6,996.3L4752.6,996.3z"/>
	</g>
</g>
</svg>
